<svg width="24" height="24" viewBox="0 0 24 24" fill="none" xmlns="http://www.w3.org/2000/svg">
  <path
    d="M4.07656 11.6C3.97656 11.8 3.97656 12.1 4.07656 12.4C4.17656 12.5 4.17656 12.6 4.27656 12.7L11.2766 19.7C11.6766 20.1 12.2766 20.1 12.6766 19.7C13.0766 19.3 13.0766 18.7 12.6766 18.3L7.37656 13L18.9766 13C19.5766 13 19.9766 12.6 19.9766 12C19.9766 11.4 19.5766 11 18.9766 11L7.37656 11L12.6766 5.7C13.0766 5.3 13.0766 4.7 12.6766 4.3C12.4766 4.1 12.1766 4 11.9766 4C11.7766 4 11.4766 4.1 11.2766 4.3L4.27656 11.3C4.17656 11.4 4.07656 11.5 4.07656 11.6Z"
  />
</svg>