<?xml version="1.0" standalone="no"?>
<!DOCTYPE svg PUBLIC "-//W3C//DTD SVG 20010904//EN"
 "http://www.w3.org/TR/2001/REC-SVG-20010904/DTD/svg10.dtd">
<svg version="1.0" xmlns="http://www.w3.org/2000/svg"
 width="700.000000pt" height="700.000000pt" viewBox="0 0 700.000000 700.000000"
 preserveAspectRatio="xMidYMid meet">
<metadata>
Created by potrace 1.14, written by Peter Selinger 2001-2017
</metadata>
<g transform="translate(0.000000,700.000000) scale(0.100000,-0.100000)"
fill="#000000" stroke="none">
<path d="M3222 6989 c-745 -66 -1413 -341 -1972 -810 -144 -121 -368 -349
-484 -494 -362 -451 -603 -983 -710 -1565 -39 -216 -51 -358 -51 -620 0 -262
12 -404 51 -620 71 -387 198 -746 380 -1072 290 -523 731 -983 1239 -1294 439
-269 920 -432 1460 -496 145 -17 576 -17 730 0 689 77 1334 347 1859 780 127
105 340 316 451 447 443 524 711 1143 801 1850 25 195 25 615 0 810 -69 540
-228 993 -508 1446 -232 377 -568 734 -935 997 -469 336 -1002 545 -1588 623
-174 23 -561 33 -723 18z m593 -1404 c846 -126 1536 -756 1738 -1585 47 -193
60 -322 54 -560 -3 -118 -10 -232 -17 -253 -15 -50 -70 -104 -122 -118 -78
-21 -165 18 -204 93 -11 21 -12 68 -7 245 6 242 -6 365 -53 543 -163 606 -637
1083 -1235 1244 -304 81 -639 81 -928 -1 -112 -32 -200 -2 -242 80 -41 80 -8
191 70 231 63 33 339 89 491 100 103 7 346 -3 455 -19z m-1463 -343 c60 -26
134 -100 160 -160 12 -27 23 -77 26 -117 7 -125 -55 -237 -169 -300 -49 -27
-62 -30 -149 -30 -80 0 -102 4 -140 24 -61 32 -116 86 -148 146 -24 44 -27 61
-27 145 0 87 3 100 30 149 37 66 101 124 169 151 66 26 180 23 248 -8z m-526
-781 c42 -19 75 -57 89 -100 15 -48 6 -98 -39 -211 -267 -686 -96 -1441 441
-1939 289 -268 646 -424 1052 -461 142 -13 275 -6 439 21 143 24 156 24 209
-2 106 -51 125 -198 36 -282 -69 -65 -416 -109 -693 -87 -862 65 -1587 630
-1855 1446 -151 457 -135 977 42 1424 55 138 70 162 125 189 53 26 100 26 154
2z m3284 -1623 c167 -39 341 -179 419 -338 54 -111 74 -208 68 -326 -16 -284
-223 -527 -502 -589 -98 -22 -242 -16 -335 14 -306 97 -498 421 -436 732 47
232 215 423 435 494 108 35 238 40 351 13z"/>
</g>
</svg>
