<?xml version="1.0" standalone="no"?>
<!DOCTYPE svg PUBLIC "-//W3C//DTD SVG 20010904//EN"
 "http://www.w3.org/TR/2001/REC-SVG-20010904/DTD/svg10.dtd">
<svg version="1.0" xmlns="http://www.w3.org/2000/svg"
 width="700.000000pt" height="700.000000pt" viewBox="0 0 700.000000 700.000000"
 preserveAspectRatio="xMidYMid meet">
<metadata>
Created by potrace 1.14, written by Peter Selinger 2001-2017
</metadata>
<g transform="translate(0.000000,700.000000) scale(0.100000,-0.100000)"
fill="#000000" stroke="none">
<path d="M5217 6124 c-1 -1 -34 -4 -72 -7 -353 -30 -727 -238 -935 -521 -112
-154 -298 -506 -473 -896 -13 -30 -41 -91 -61 -135 -47 -102 -988 -1980 -1009
-2012 -6 -9 -59 21 -185 106 -149 99 -451 281 -468 281 -3 0 -29 11 -58 24
-177 81 -374 127 -542 128 -61 0 -124 -3 -140 -6 -16 -3 -44 -8 -62 -11 -149
-25 -336 -137 -449 -269 -53 -64 -143 -207 -143 -229 0 -7 -4 -17 -9 -22 -9
-9 -51 -145 -65 -207 -24 -108 -25 -331 -1 -453 82 -419 365 -757 769 -917 76
-30 208 -66 273 -75 76 -10 352 -10 423 1 74 11 242 67 321 106 64 32 191 111
215 133 7 7 32 28 55 47 154 125 350 372 440 555 l32 65 26 -19 c14 -11 62
-50 106 -88 153 -130 370 -310 455 -375 337 -259 682 -404 1050 -443 61 -6
262 -6 325 0 22 2 65 6 96 9 48 5 146 23 224 42 141 34 287 98 410 178 105 69
123 83 221 183 167 169 288 399 358 678 36 144 53 310 50 500 -2 94 -5 181 -8
195 -3 13 -8 42 -11 65 -8 55 -40 179 -64 245 -139 395 -451 705 -980 974
-180 92 -279 120 -411 120 -128 -1 -190 -22 -268 -90 -66 -58 -98 -112 -115
-196 -28 -133 2 -260 79 -335 58 -56 157 -97 229 -96 84 1 125 25 251 144 129
122 180 150 268 144 75 -4 122 -24 201 -82 144 -108 304 -300 383 -458 153
-309 140 -732 -33 -1077 -49 -98 -65 -121 -147 -224 -145 -181 -374 -334 -588
-393 -122 -33 -129 -34 -275 -37 -117 -2 -158 1 -250 21 -216 46 -382 107
-618 226 -176 89 -799 501 -791 523 15 38 1260 2518 1321 2631 108 198 125
229 137 245 7 8 31 47 54 86 38 65 170 256 217 313 40 49 154 160 205 200 198
157 431 201 694 131 90 -24 108 -16 142 59 30 67 8 90 -169 178 -168 84 -361
133 -540 137 -48 1 -88 2 -90 0z m-3572 -3508 c165 -10 365 -68 553 -161 104
-51 277 -159 301 -189 10 -12 4 -31 -34 -103 -64 -123 -90 -165 -172 -283 -60
-85 -207 -233 -303 -305 -191 -145 -391 -219 -585 -219 -120 0 -186 15 -282
62 -167 81 -308 269 -351 468 -17 79 -7 222 21 295 96 251 341 409 676 438 42
4 81 6 86 5 6 -2 46 -5 90 -8z"/>
</g>
</svg>
